<mxfile host="app.diagrams.net" modified="2021-07-01T11:13:21.603Z" agent="5.0 (Windows NT 10.0; Win64; x64) AppleWebKit/537.36 (KHTML, like Gecko) Chrome/88.0.4324.182 Safari/537.36" etag="HALxMuvs13e9orMjvd7C" version="14.7.6" type="github">
  <diagram id="MakXj6evBW5YD1CzVEBB" name="第 1 页">
    <mxGraphModel dx="866" dy="522" grid="1" gridSize="10" guides="1" tooltips="1" connect="1" arrows="1" fold="1" page="1" pageScale="1" pageWidth="827" pageHeight="1169" math="0" shadow="0">
      <root>
        <mxCell id="0" />
        <mxCell id="1" parent="0" />
        <mxCell id="gS5Rd68FakjWqaGdZNtC-18" style="edgeStyle=orthogonalEdgeStyle;rounded=0;orthogonalLoop=1;jettySize=auto;html=1;exitX=1;exitY=0.5;exitDx=0;exitDy=0;" edge="1" parent="1" source="gS5Rd68FakjWqaGdZNtC-1" target="gS5Rd68FakjWqaGdZNtC-2">
          <mxGeometry relative="1" as="geometry" />
        </mxCell>
        <mxCell id="gS5Rd68FakjWqaGdZNtC-1" value="服务" style="ellipse;whiteSpace=wrap;html=1;" vertex="1" parent="1">
          <mxGeometry x="80" y="80" width="80" height="40" as="geometry" />
        </mxCell>
        <mxCell id="gS5Rd68FakjWqaGdZNtC-19" style="edgeStyle=orthogonalEdgeStyle;rounded=0;orthogonalLoop=1;jettySize=auto;html=1;exitX=1;exitY=1;exitDx=0;exitDy=0;entryX=0.5;entryY=0;entryDx=0;entryDy=0;" edge="1" parent="1" source="gS5Rd68FakjWqaGdZNtC-2" target="gS5Rd68FakjWqaGdZNtC-5">
          <mxGeometry relative="1" as="geometry" />
        </mxCell>
        <mxCell id="gS5Rd68FakjWqaGdZNtC-2" value="实体" style="ellipse;whiteSpace=wrap;html=1;" vertex="1" parent="1">
          <mxGeometry x="220" y="80" width="130" height="80" as="geometry" />
        </mxCell>
        <mxCell id="gS5Rd68FakjWqaGdZNtC-3" value="值对象" style="ellipse;whiteSpace=wrap;html=1;" vertex="1" parent="1">
          <mxGeometry x="590" y="80" width="80" height="40" as="geometry" />
        </mxCell>
        <mxCell id="gS5Rd68FakjWqaGdZNtC-4" value="聚合" style="ellipse;whiteSpace=wrap;html=1;" vertex="1" parent="1">
          <mxGeometry x="210" y="130" width="80" height="40" as="geometry" />
        </mxCell>
        <mxCell id="gS5Rd68FakjWqaGdZNtC-5" value="仓库" style="ellipse;whiteSpace=wrap;html=1;" vertex="1" parent="1">
          <mxGeometry x="360" y="170" width="150" height="90" as="geometry" />
        </mxCell>
        <mxCell id="gS5Rd68FakjWqaGdZNtC-11" style="edgeStyle=orthogonalEdgeStyle;rounded=0;orthogonalLoop=1;jettySize=auto;html=1;entryX=0;entryY=0;entryDx=0;entryDy=52.5;entryPerimeter=0;" edge="1" parent="1" source="gS5Rd68FakjWqaGdZNtC-6" target="gS5Rd68FakjWqaGdZNtC-8">
          <mxGeometry relative="1" as="geometry" />
        </mxCell>
        <mxCell id="gS5Rd68FakjWqaGdZNtC-6" value="工厂" style="ellipse;whiteSpace=wrap;html=1;" vertex="1" parent="1">
          <mxGeometry x="470" y="210" width="80" height="40" as="geometry" />
        </mxCell>
        <mxCell id="gS5Rd68FakjWqaGdZNtC-7" value="缓存" style="ellipse;whiteSpace=wrap;html=1;" vertex="1" parent="1">
          <mxGeometry x="400" y="240" width="80" height="40" as="geometry" />
        </mxCell>
        <mxCell id="gS5Rd68FakjWqaGdZNtC-8" value="数据库" style="shape=cylinder3;whiteSpace=wrap;html=1;boundedLbl=1;backgroundOutline=1;size=15;" vertex="1" parent="1">
          <mxGeometry x="620" y="177" width="60" height="80" as="geometry" />
        </mxCell>
        <mxCell id="gS5Rd68FakjWqaGdZNtC-12" value="实现了局部与整体的关系" style="text;html=1;align=center;verticalAlign=middle;resizable=0;points=[];autosize=1;strokeColor=none;" vertex="1" parent="1">
          <mxGeometry x="180" y="177" width="150" height="20" as="geometry" />
        </mxCell>
        <mxCell id="gS5Rd68FakjWqaGdZNtC-13" value="客户端只能操作整体" style="text;html=1;align=center;verticalAlign=middle;resizable=0;points=[];autosize=1;strokeColor=none;" vertex="1" parent="1">
          <mxGeometry x="30" y="140" width="120" height="20" as="geometry" />
        </mxCell>
        <mxCell id="gS5Rd68FakjWqaGdZNtC-14" value="对局部的操作，封装在了 仓库和工厂中" style="text;html=1;align=center;verticalAlign=middle;resizable=0;points=[];autosize=1;strokeColor=none;" vertex="1" parent="1">
          <mxGeometry x="140" y="220" width="220" height="20" as="geometry" />
        </mxCell>
        <mxCell id="gS5Rd68FakjWqaGdZNtC-15" value="客户端程序不必关注数据库的操作， 操作仓库就好了" style="text;html=1;align=center;verticalAlign=middle;resizable=0;points=[];autosize=1;strokeColor=none;" vertex="1" parent="1">
          <mxGeometry x="20" y="290" width="290" height="20" as="geometry" />
        </mxCell>
        <mxCell id="gS5Rd68FakjWqaGdZNtC-16" value="对缓存和数据库的操作都封装在了工厂中" style="text;html=1;align=center;verticalAlign=middle;resizable=0;points=[];autosize=1;strokeColor=none;" vertex="1" parent="1">
          <mxGeometry x="350" y="310" width="230" height="20" as="geometry" />
        </mxCell>
        <mxCell id="gS5Rd68FakjWqaGdZNtC-17" value="对数据的查询不再通过SQL语句进行JOIN ,&amp;nbsp; 而是通过工厂进行补填与装配" style="text;html=1;align=center;verticalAlign=middle;resizable=0;points=[];autosize=1;strokeColor=none;" vertex="1" parent="1">
          <mxGeometry x="300" y="340" width="400" height="20" as="geometry" />
        </mxCell>
        <mxCell id="gS5Rd68FakjWqaGdZNtC-20" value="" style="endArrow=none;html=1;" edge="1" parent="1">
          <mxGeometry width="50" height="50" relative="1" as="geometry">
            <mxPoint x="360" y="100" as="sourcePoint" />
            <mxPoint x="580" y="100" as="targetPoint" />
          </mxGeometry>
        </mxCell>
        <mxCell id="gS5Rd68FakjWqaGdZNtC-21" value="实体与值对象的区别在是 是否可变" style="text;html=1;align=center;verticalAlign=middle;resizable=0;points=[];autosize=1;strokeColor=none;" vertex="1" parent="1">
          <mxGeometry x="380" y="80" width="200" height="20" as="geometry" />
        </mxCell>
      </root>
    </mxGraphModel>
  </diagram>
</mxfile>
